<?xml version="1.0" standalone="no"?>
<!DOCTYPE svg PUBLIC "-//W3C//DTD SVG 20010904//EN"
 "http://www.w3.org/TR/2001/REC-SVG-20010904/DTD/svg10.dtd">
<svg version="1.0" xmlns="http://www.w3.org/2000/svg"
 width="250.000000pt" height="250.000000pt" viewBox="0 0 250.000000 250.000000"
 preserveAspectRatio="xMidYMid meet">
<metadata>
Created by potrace 1.15, written by Peter Selinger 2001-2017
</metadata>
<g transform="translate(0.000000,250.000000) scale(0.100000,-0.100000)"
fill="#000000" stroke="none">
<path d="M275 2440 c-86 -22 -158 -80 -197 -158 l-23 -47 -3 -562 -3 -563 376
0 375 0 0 -385 0 -385 -75 0 -75 0 0 295 0 295 -70 0 -70 0 0 -295 0 -295 -70
0 -70 0 0 295 0 295 -87 0 -88 0 3 -295 3 -295 -77 0 -76 0 7 -41 c16 -95 78
-178 163 -221 l47 -23 985 0 985 0 47 23 c85 43 147 126 163 221 l7 41 -301 0
-301 0 0 385 0 385 75 0 75 0 0 -305 0 -305 225 0 226 0 -3 868 -3 867 -23 47
c-27 54 -94 119 -149 145 -36 17 -98 18 -1003 20 -531 0 -978 -2 -995 -7z
m1435 -1715 l0 -385 -70 0 -70 0 0 150 0 150 -230 0 -230 0 0 -150 0 -150 -75
0 -75 0 0 385 0 385 375 0 375 0 0 -385z"/>
<path d="M1110 860 l0 -70 230 0 230 0 0 70 0 70 -230 0 -230 0 0 -70z"/>
</g>
</svg>
