<?xml version="1.0" standalone="no"?>
<!DOCTYPE svg PUBLIC "-//W3C//DTD SVG 20010904//EN"
 "http://www.w3.org/TR/2001/REC-SVG-20010904/DTD/svg10.dtd">
<svg version="1.0" xmlns="http://www.w3.org/2000/svg"
 width="250.000000pt" height="250.000000pt" viewBox="0 0 250.000000 250.000000"
 preserveAspectRatio="xMidYMid meet">
<metadata>
Created by potrace 1.15, written by Peter Selinger 2001-2017
</metadata>
<g transform="translate(0.000000,250.000000) scale(0.100000,-0.100000)"
fill="#000000" stroke="none">
<path d="M0 1250 l0 -1250 1250 0 1250 0 0 1250 0 1250 -1250 0 -1250 0 0
-1250z m800 -525 l0 -385 -75 0 -75 0 0 295 0 295 -70 0 -70 0 0 -295 0 -295
-70 0 -70 0 0 295 0 295 -87 0 -88 0 3 -295 3 -295 -76 0 -75 0 0 385 0 385
375 0 375 0 0 -385z m910 0 l0 -385 -70 0 -70 0 0 150 0 150 -230 0 -230 0 0
-150 0 -150 -75 0 -75 0 0 385 0 385 375 0 375 0 0 -385z m290 80 l0 -305 225
0 225 0 0 -80 0 -80 -300 0 -300 0 0 385 0 385 75 0 75 0 0 -305z"/>
<path d="M1110 860 l0 -70 230 0 230 0 0 70 0 70 -230 0 -230 0 0 -70z"/>
</g>
</svg>
